<svg xmlns="http://www.w3.org/2000/svg" viewBox="0 0 190 180"><path fill="#812" d="M165.5 137.4l.07 5.49-3.28 3.75-3.79-1.2c-47.72 51.8-87.23 37.3-121.26 8.9C6.41 128.6 1.41 83.49 23.12 47.42c0 0-3.19-8.85-7.74-10.85C9.23 33.82 0 37.22 0 37.22c5.93-8.09 11.94-7.85 11.59-8.28-3.87-5.06-7.43-4.2-7.43-4.2 4.46-2.92 6.79-2.86 12.03-3.67-1.17-3.19-2.53-10.05-2.53-10.05 1 .85 6.35 3.12 9.15 3.13C23.99 6.3 27.32.93 27.32.93s.34 2.61 3.2 8.75c0 0 1.28-5.2 9.03-9.68 0 0-5.31 11.04 1.35 18.7 1.03 1.18 2.27 1.37 4.67 2.92 32.94-26.7 79.27-29.01 110.09-3.28 34.06 28.44 51.81 67.97 9.83 119.07"/></svg>
